<svg width="800" height="220" viewBox="0 0 800 220" fill="none" xmlns="http://www.w3.org/2000/svg">
  <rect width="800" height="220" fill="transparent"/>

  <text x="18" y="128" fill="#F6F6F6" font-family="Arial, Helvetica, sans-serif" font-size="78" font-weight="400" letter-spacing="1.2">POLLRICH</text>
  <text x="500" y="128" fill="#F6F6F6" font-family="Arial, Helvetica, sans-serif" font-size="78" font-weight="400" letter-spacing="1.2">INDIA</text>

  <path d="M392 47C434 60 472 86 491 124C499 141 499 158 493 171C496 155 494 138 489 125C480 101 456 79 429 60L392 47Z" fill="#8A96A0" opacity="0.96"/>
  <path d="M385 55C427 70 462 97 478 134C485 150 485 165 480 177C483 162 481 148 476 134C468 109 445 89 418 72L385 55Z" fill="#66727D" opacity="0.9"/>

  <path d="M330 151C401 164 472 182 544 206C504 198 459 188 408 178C380 173 350 168 321 162L330 151Z" fill="#FFD700"/>
  <path d="M342 164C408 177 470 193 521 208C494 201 450 190 400 181C377 177 354 173 333 169L342 164Z" fill="#F1C400"/>
  <path d="M353 177C411 188 467 201 500 212C482 206 446 196 399 187C381 183 366 181 350 178L353 177Z" fill="#FFE869"/>
</svg>
