<svg width="620" height="220" viewBox="0 0 620 220" fill="none" xmlns="http://www.w3.org/2000/svg">
  <rect width="620" height="220" fill="#1C1E22"/>

  <text x="18" y="132" fill="#F7F7F7" font-family="Arial, Helvetica, sans-serif" font-size="82" font-weight="400" letter-spacing="1">POLLRICH</text>
  <text x="395" y="132" fill="#F7F7F7" font-family="Arial, Helvetica, sans-serif" font-size="82" font-weight="400" letter-spacing="1">INDIA</text>

  <path d="M426 62C470 74 518 104 540 141C550 157 548 172 536 185C545 167 543 146 535 129C524 104 500 85 474 72L426 62Z" fill="#788490" opacity="0.95"/>
  <path d="M416 69C459 84 507 115 528 153C536 168 534 182 522 194C529 180 528 160 520 142C510 118 487 98 462 84L416 69Z" fill="#5F6A74" opacity="0.9"/>

  <path d="M285 149C352 163 436 187 502 207C468 199 419 188 362 177C340 173 316 168 292 163L285 149Z" fill="#FFD700"/>
  <path d="M298 160C360 174 433 196 490 211C462 202 419 190 365 178C347 174 326 170 305 166L298 160Z" fill="#F5C800"/>
  <path d="M315 174C375 187 440 203 472 214C454 206 419 195 368 184C351 180 333 177 318 175L315 174Z" fill="#FFE869"/>
</svg>
