<svg width="620" height="220" viewBox="0 0 620 220" fill="none" xmlns="http://www.w3.org/2000/svg">
  <rect width="620" height="220" fill="#1B1B1B"/>
  <text x="16" y="148" fill="#F7F7F7" font-family="Arial, Helvetica, sans-serif" font-size="92" font-weight="400" letter-spacing="0.5">POLLRICH</text>

  <path d="M455 74C493 84 531 109 550 140C560 157 558 172 545 185C553 169 552 146 544 129C534 106 510 89 486 77L455 74Z" fill="#8D98A1" opacity="0.95"/>
  <path d="M446 80C483 95 520 121 539 153C548 168 546 182 534 195C541 180 540 160 532 143C522 119 499 100 475 88L446 80Z" fill="#707D88" opacity="0.85"/>

  <path d="M300 150C365 161 442 183 508 205C472 198 426 188 371 178C346 174 319 169 289 162L300 150Z" fill="#FFD600"/>
  <path d="M316 162C375 174 447 194 497 208C470 199 425 186 374 177C353 173 330 169 305 165L316 162Z" fill="#F5C400"/>
  <path d="M332 176C390 188 451 203 486 213C466 205 423 193 374 184C357 181 342 179 327 177L332 176Z" fill="#FFE45C"/>
</svg>
